# xmcd
#
# Track frame offsets: 
#        183
#        12738
#        21058
#        33720
#        43738
#        55325
#        67643
#        81555
#        94433
#        106370
#        117033
#        129553
#        140633
#        149903
#        161478
#        172615
#        182248
#        193875
#        206215
#        218228
#
# Disc length: 3062 seconds
#
# Revision: 4
# Processed by: cddbd v1.5.2PL0 Copyright (c) Steve Scherf et al.
# Submitted via: ExactAudioCopy v1.1
#
DISCID=350bf414
DTITLE=(Various Artists) - Rhythm' N' Blues Gems - Vol. 2
DYEAR=1989
DGENRE=Blues
TTITLE0=Dee Clark - Raindrops
TTITLE1=The Showmen - Country Fool
TTITLE2=Jimmy McCracklin - The Walk
TTITLE3=Rosco Gordon - Sit Right Here
TTITLE4=Etta James - Pay Back
TTITLE5=Ernie K-Doe - A Certain Girl
TTITLE6=Big Joe Turner - The Night Time Is The Right Time
TTITLE7=Wynonie Harris - The Comeback
TTITLE8=Rudi Richardson - Fool's Hall Of Fame
TTITLE9=The 5 Royales - They Don't Know
TTITLE10=Chuck Berry - Route 66
TTITLE11=Gene Chandler and The Dukays - Kissin' In The Kitchen
TTITLE12=Bo Diddley - Crackin' Up
TTITLE13=Christine Kittrel - I'm A Woman
TTITLE14=Buddy Guy - Watch Yourself
TTITLE15=Memphis Slim - Rockin' The House
TTITLE16=Fats Domino - The Fat Man
TTITLE17=Raymond Lewis - I'm Gonna Put Some Hurt On You
TTITLE18=Joe Tex - Ain't I A Mess
TTITLE19=Irma Thomas - Ruler Of My Heart
EXTD=
EXTT0=
EXTT1=
EXTT2=
EXTT3=
EXTT4=
EXTT5=
EXTT6=
EXTT7=
EXTT8=
EXTT9=
EXTT10=
EXTT11=
EXTT12=
EXTT13=
EXTT14=
EXTT15=
EXTT16=
EXTT17=
EXTT18=
EXTT19=
PLAYORDER=
